0
SECTION
2
HEADER
9
$INSUNITS
70
4
9
$ACADVER
1
AC1014
9
$HANDSEED
5
FFFF
0
ENDSEC
0
SECTION
2
TABLES
0
TABLE
2
VPORT
5
8
100
AcDbSymbolTable
0
ENDTAB
0
TABLE
2
LTYPE
5
5
100
AcDbSymbolTable
0
LTYPE
5
14
100
AcDbSymbolTableRecord
100
AcDbLinetypeTableRecord
2
BYBLOCK
70
0
0
LTYPE
5
15
100
AcDbSymbolTableRecord
100
AcDbLinetypeTableRecord
2
BYLAYER
70
0
0
ENDTAB
0
TABLE
2
LAYER
5
2
100
AcDbSymbolTable
70
2
0
LAYER
5
50
100
AcDbSymbolTableRecord
100
AcDbLayerTableRecord
2
0
70
0
6
CONTINUOUS
0
ENDTAB
0
TABLE
2
STYLE
5
3
100
AcDbSymbolTable
70
1
0
STYLE
5
11
100
AcDbSymbolTableRecord
100
AcDbTextStyleTableRecord
2
STANDARD
70
0
0
ENDTAB
0
TABLE
2
VIEW
5
6
100
AcDbSymbolTable
70
0
0
ENDTAB
0
TABLE
2
UCS
5
7
100
AcDbSymbolTable
70
0
0
ENDTAB
0
TABLE
2
APPID
5
9
100
AcDbSymbolTable
70
2
0
APPID
5
12
100
AcDbSymbolTableRecord
100
AcDbRegAppTableRecord
2
ACAD
70
0
0
ENDTAB
0
TABLE
2
DIMSTYLE
5
A
100
AcDbSymbolTable
70
1
0
ENDTAB
0
TABLE
2
BLOCK_RECORD
5
1
100
AcDbSymbolTable
70
1
0
BLOCK_RECORD
5
1F
100
AcDbSymbolTableRecord
100
AcDbBlockTableRecord
2
*MODEL_SPACE
0
BLOCK_RECORD
5
1B
100
AcDbSymbolTableRecord
100
AcDbBlockTableRecord
2
*PAPER_SPACE
0
ENDTAB
0
ENDSEC
0
SECTION
2
BLOCKS
0
BLOCK
5
20
100
AcDbEntity
100
AcDbBlockBegin
2
*MODEL_SPACE
0
ENDBLK
5
21
100
AcDbEntity
100
AcDbBlockEnd
0
BLOCK
5
1C
100
AcDbEntity
100
AcDbBlockBegin
2
*PAPER_SPACE
0
ENDBLK
5
1D
100
AcDbEntity
100
AcDbBlockEnd
0
ENDSEC
0
SECTION
2
ENTITIES
0
LWPOLYLINE
5
100
100
AcDbEntity
8
0
100
AcDbPolyline
90
4
70
1
43
0.0
10
-74.660000014901172
20
-51.117253931316412
42
-15.937253693832741
10
-72.659999985098835
20
-51.117253931316412
10
-72.659999985098835
20
-53.008427119477844
10
-74.660000014901158
20
-53.008427119477844
0
LWPOLYLINE
5
101
100
AcDbEntity
8
0
100
AcDbPolyline
90
4
70
1
43
0.0
10
-13.700000014901164
20
-53.008427119477844
10
-11.699999985098843
20
-53.008427119477844
10
-11.699999985098838
20
-51.117253931316412
42
15.937253693832741
10
-13.700000014901173
20
-51.117253931316412
0
LWPOLYLINE
5
102
100
AcDbEntity
8
0
100
AcDbPolyline
90
4
70
1
43
0.0
10
-94.980000014901194
20
-51.117253931316412
42
-15.937253693832627
10
-92.979999985098857
20
-51.117253931316412
10
-92.979999985098857
20
-53.008427119477844
10
-94.980000014901179
20
-53.008427119477844
0
LWPOLYLINE
5
103
100
AcDbEntity
8
0
100
AcDbPolyline
90
4
70
1
43
0.0
10
-54.340000014901179
20
-51.117253931316412
42
-15.937253693832741
10
-52.339999985098842
20
-51.117253931316412
10
-52.339999985098842
20
-53.008427119477844
10
-54.340000014901165
20
-53.008427119477844
0
LWPOLYLINE
5
104
100
AcDbEntity
8
0
100
AcDbPolyline
90
4
70
1
43
0.0
10
-34.020000014901171
20
-51.117253931316412
42
-15.937253693832741
10
-32.019999985098842
20
-51.117253931316412
10
-32.019999985098842
20
-53.008427119477844
10
-34.020000014901164
20
-53.008427119477844
0
LWPOLYLINE
5
105
100
AcDbEntity
8
0
100
AcDbPolyline
90
4
70
1
43
0.0
10
-115.3000000149012
20
-51.117253931316412
42
-15.937253693832627
10
-113.29999998509885
20
-51.117253931316412
10
-113.29999998509885
20
-53.008427119477844
10
-115.30000001490117
20
-53.008427119477844
0
CIRCLE
5
106
100
AcDbEntity
8
0
100
AcDbCircle
10
-3.1750000000000007
20
-57.785000000000011
30
0
40
1.5000000000000022
0
CIRCLE
5
107
100
AcDbEntity
8
0
100
AcDbCircle
10
-123.82499999999999
20
-57.785000000000018
30
0
40
1.5000000000000036
0
CIRCLE
5
108
100
AcDbEntity
8
0
100
AcDbCircle
10
-3.1750000000000007
20
-3.1750000000000007
30
0
40
1.5000000000000002
0
CIRCLE
5
109
100
AcDbEntity
8
0
100
AcDbCircle
10
-123.825
20
-3.1750000000000007
30
0
40
1.5000000000000036
0
LWPOLYLINE
5
110
100
AcDbEntity
8
0
100
AcDbPolyline
90
8
70
1
43
0.0
10
-5.0000000000000071
20
10
42
-0.41421356237309537
10
10
20
-5
10
10.000000000000004
20
-55.959999999999972
42
-0.41421356237309548
10
-5
20
-70.960000000000008
10
-122.0000000000001
20
-70.959999999999994
42
-0.41421356237309281
10
-137
20
-55.960000000000001
10
-137
20
-4.9999999999999769
42
-0.41421356237309398
10
-122.00000000000001
20
10.000000000000004
0
LWPOLYLINE
5
111
100
AcDbEntity
8
0
100
AcDbPolyline
90
4
70
1
43
0.0
10
-13.700000014901168
20
-51.117253931316412
42
-15.937253693832741
10
-11.699999985098838
20
-51.117253931316412
10
-11.699999985098843
20
-53.008427119477844
10
-13.700000014901164
20
-53.008427119477844
0
LWPOLYLINE
5
112
100
AcDbEntity
8
0
100
AcDbPolyline
90
4
70
1
43
0.0
10
-34.020000014901171
20
-51.117253931316412
42
-15.937253693832741
10
-32.019999985098842
20
-51.117253931316412
10
-32.019999985098842
20
-53.008427119477844
10
-34.020000014901164
20
-53.008427119477844
0
LWPOLYLINE
5
113
100
AcDbEntity
8
0
100
AcDbPolyline
90
4
70
1
43
0.0
10
-54.340000014901179
20
-51.117253931316412
42
-15.937253693832741
10
-52.339999985098842
20
-51.117253931316412
10
-52.339999985098842
20
-53.008427119477844
10
-54.340000014901165
20
-53.008427119477844
0
LWPOLYLINE
5
114
100
AcDbEntity
8
0
100
AcDbPolyline
90
4
70
1
43
0.0
10
-74.660000014901172
20
-51.117253931316412
42
-15.937253693832741
10
-72.659999985098835
20
-51.117253931316412
10
-72.659999985098835
20
-53.008427119477844
10
-74.660000014901158
20
-53.008427119477844
0
LWPOLYLINE
5
115
100
AcDbEntity
8
0
100
AcDbPolyline
90
4
70
1
43
0.0
10
-94.980000014901194
20
-51.117253931316412
42
-15.937253693832627
10
-92.979999985098857
20
-51.117253931316412
10
-92.979999985098857
20
-53.008427119477844
10
-94.980000014901179
20
-53.008427119477844
0
LWPOLYLINE
5
116
100
AcDbEntity
8
0
100
AcDbPolyline
90
4
70
1
43
0.0
10
-115.3000000149012
20
-51.117253931316412
42
-15.937253693832627
10
-113.29999998509885
20
-51.117253931316412
10
-113.29999998509885
20
-53.008427119477844
10
-115.30000001490117
20
-53.008427119477844
0
ARC
5
117
100
AcDbEntity
8
0
100
AcDbCircle
10
-122
20
-5.0000000000000107
30
0
40
15.000000000000016
100
AcDbArc
50
90.000000000000057
51
180
0
LINE
5
118
100
AcDbEntity
8
0
100
AcDbLine
10
-137
20
-4.9999999999999751
30
0
11
-137
21
-55.960000000000001
31
0
0
ARC
5
119
100
AcDbEntity
8
0
100
AcDbCircle
10
-122
20
-55.959999999999994
30
0
40
15
100
AcDbArc
50
180
51
269.9999999999996
0
CIRCLE
5
120
100
AcDbEntity
8
0
100
AcDbCircle
10
-123.825
20
-3.1750000000000007
30
0
40
1.5000000000000036
0
LINE
5
121
100
AcDbEntity
8
0
100
AcDbLine
10
-5.0000000000000036
20
10
30
0
11
-122.00000000000001
21
10.000000000000004
31
0
0
ARC
5
122
100
AcDbEntity
8
0
100
AcDbCircle
10
-4.9999999999999956
20
-4.9999999999999956
30
0
40
14.999999999999996
100
AcDbArc
50
0
51
90.000000000000043
0
LINE
5
123
100
AcDbEntity
8
0
100
AcDbLine
10
10.000000000000004
20
-55.959999999999994
30
0
11
10
21
-5.0000000000000018
31
0
0
CIRCLE
5
124
100
AcDbEntity
8
0
100
AcDbCircle
10
-3.1750000000000007
20
-3.1750000000000007
30
0
40
1.5000000000000002
0
ARC
5
125
100
AcDbEntity
8
0
100
AcDbCircle
10
-4.9999999999999964
20
-55.960000000000001
30
0
40
15
100
AcDbArc
50
-90
51
0
0
ENDSEC
0
SECTION
2
OBJECTS
0
DICTIONARY
5
C
100
AcDbDictionary
3
ACAD_GROUP
350
D
3
ACAD_MLINESTYLE
350
17
0
DICTIONARY
5
D
100
AcDbDictionary
0
DICTIONARY
5
1A
330
C
100
AcDbDictionary
0
DICTIONARY
5
17
100
AcDbDictionary
0
ENDSEC
0
EOF
