0
SECTION
2
HEADER
9
$INSUNITS
70
4
9
$ACADVER
1
AC1014
9
$HANDSEED
5
FFFF
0
ENDSEC
0
SECTION
2
TABLES
0
TABLE
2
VPORT
5
8
100
AcDbSymbolTable
0
ENDTAB
0
TABLE
2
LTYPE
5
5
100
AcDbSymbolTable
0
LTYPE
5
14
100
AcDbSymbolTableRecord
100
AcDbLinetypeTableRecord
2
BYBLOCK
70
0
0
LTYPE
5
15
100
AcDbSymbolTableRecord
100
AcDbLinetypeTableRecord
2
BYLAYER
70
0
0
ENDTAB
0
TABLE
2
LAYER
5
2
100
AcDbSymbolTable
70
2
0
LAYER
5
50
100
AcDbSymbolTableRecord
100
AcDbLayerTableRecord
2
0
70
0
6
CONTINUOUS
0
ENDTAB
0
TABLE
2
STYLE
5
3
100
AcDbSymbolTable
70
1
0
STYLE
5
11
100
AcDbSymbolTableRecord
100
AcDbTextStyleTableRecord
2
STANDARD
70
0
0
ENDTAB
0
TABLE
2
VIEW
5
6
100
AcDbSymbolTable
70
0
0
ENDTAB
0
TABLE
2
UCS
5
7
100
AcDbSymbolTable
70
0
0
ENDTAB
0
TABLE
2
APPID
5
9
100
AcDbSymbolTable
70
2
0
APPID
5
12
100
AcDbSymbolTableRecord
100
AcDbRegAppTableRecord
2
ACAD
70
0
0
ENDTAB
0
TABLE
2
DIMSTYLE
5
A
100
AcDbSymbolTable
70
1
0
ENDTAB
0
TABLE
2
BLOCK_RECORD
5
1
100
AcDbSymbolTable
70
1
0
BLOCK_RECORD
5
1F
100
AcDbSymbolTableRecord
100
AcDbBlockTableRecord
2
*MODEL_SPACE
0
BLOCK_RECORD
5
1B
100
AcDbSymbolTableRecord
100
AcDbBlockTableRecord
2
*PAPER_SPACE
0
ENDTAB
0
ENDSEC
0
SECTION
2
BLOCKS
0
BLOCK
5
20
100
AcDbEntity
100
AcDbBlockBegin
2
*MODEL_SPACE
0
ENDBLK
5
21
100
AcDbEntity
100
AcDbBlockEnd
0
BLOCK
5
1C
100
AcDbEntity
100
AcDbBlockBegin
2
*PAPER_SPACE
0
ENDBLK
5
1D
100
AcDbEntity
100
AcDbBlockEnd
0
ENDSEC
0
SECTION
2
ENTITIES
0
LWPOLYLINE
5
100
100
AcDbEntity
8
0
100
AcDbPolyline
90
36
70
1
43
0.0
10
-143.82499999999999
20
-31.174999999999997
10
-143.82499999999999
20
-20.381250000000005
10
-147.00000000000003
20
-20.381250000000001
10
-147.00000000000003
20
-9.5874999999999986
10
-143.82499999999999
20
-9.5874999999999844
10
-143.82499999999999
20
1.2062500000000043
10
-147.00000000000003
20
1.206250000000002
10
-147.00000000000003
20
12.000000000000002
10
-106.99999999999996
20
12.000000000000002
10
-106.99999999999996
20
8.8250000000000011
10
-20.000000000000007
20
8.8250000000000011
10
-20.000000000000007
20
12.000000000000002
10
20
20
12.000000000000002
10
19.99999999999978
20
1.206250000000002
10
16.824999999999754
20
1.2062500000000043
10
16.824999999999754
20
-9.5874999999999844
10
19.99999999999978
20
-9.5874999999999986
10
19.99999999999978
20
-20.381250000000001
10
16.824999999999754
20
-20.381250000000005
10
16.824999999999754
20
-31.174999999999997
10
3.0897352188740612
20
-31.174999999999997
10
3.0897352188740612
20
-19.903351902362829
10
-0.085264781125938827
20
-19.903351902362829
10
-0.085264781125938827
20
-31.174999999999997
10
-3.8571428571428568
20
-31.174999999999997
10
-3.8571428571428568
20
-34.349999999999994
10
-27.714285714285715
20
-34.349999999999994
10
-27.714285714285715
20
-31.174999999999997
10
-51.571428571428569
20
-31.174999999999997
10
-51.571428571428569
20
-34.349999999999994
10
-75.428571428571431
20
-34.349999999999994
10
-75.428571428571431
20
-31.174999999999997
10
-99.285714285714292
20
-31.174999999999997
10
-99.285714285714292
20
-34.349999999999994
10
-123.14285714285714
20
-34.349999999999994
10
-123.14285714285714
20
-31.174999999999997
0
LWPOLYLINE
5
101
100
AcDbEntity
8
0
100
AcDbPolyline
90
4
70
1
43
0.0
10
-56.631630476270232
20
-24.302499999999831
10
-56.631630476270232
20
-31.174999999999997
10
-53.456630476270234
20
-31.174999999999997
10
-53.456630476270234
20
-24.302499999999831
0
LWPOLYLINE
5
102
100
AcDbEntity
8
0
100
AcDbPolyline
90
4
70
1
43
0.0
10
-68.400000000000119
20
-23.23249999999981
10
-58.600000000000144
20
-23.23249999999981
10
-58.600000000000144
20
-11.382499999999798
10
-68.400000000000119
20
-11.382499999999798
0
LWPOLYLINE
5
103
100
AcDbEntity
8
0
100
AcDbPolyline
90
4
70
1
43
0.0
10
-29.892261929191388
20
-23.140849110415949
10
-29.892261929191388
20
-16.392499999999824
10
-46.477340868491282
20
-16.392499999999821
10
-46.477340868491282
20
-23.140849110415949
0
LWPOLYLINE
5
104
100
AcDbEntity
8
0
100
AcDbPolyline
90
4
70
1
43
0.0
10
-80.522659131508973
20
-23.140849110415949
10
-80.522659131508973
20
-16.392499999999821
10
-97.107738070808864
20
-16.392499999999824
10
-97.107738070808864
20
-23.140849110415949
0
ENDSEC
0
SECTION
2
OBJECTS
0
DICTIONARY
5
C
100
AcDbDictionary
3
ACAD_GROUP
350
D
3
ACAD_MLINESTYLE
350
17
0
DICTIONARY
5
D
100
AcDbDictionary
0
DICTIONARY
5
1A
330
C
100
AcDbDictionary
0
DICTIONARY
5
17
100
AcDbDictionary
0
ENDSEC
0
EOF
