0
SECTION
2
HEADER
9
$INSUNITS
70
4
9
$ACADVER
1
AC1014
9
$HANDSEED
5
FFFF
0
ENDSEC
0
SECTION
2
TABLES
0
TABLE
2
VPORT
5
8
100
AcDbSymbolTable
0
ENDTAB
0
TABLE
2
LTYPE
5
5
100
AcDbSymbolTable
0
LTYPE
5
14
100
AcDbSymbolTableRecord
100
AcDbLinetypeTableRecord
2
BYBLOCK
70
0
0
LTYPE
5
15
100
AcDbSymbolTableRecord
100
AcDbLinetypeTableRecord
2
BYLAYER
70
0
0
ENDTAB
0
TABLE
2
LAYER
5
2
100
AcDbSymbolTable
70
2
0
LAYER
5
50
100
AcDbSymbolTableRecord
100
AcDbLayerTableRecord
2
0
70
0
6
CONTINUOUS
0
ENDTAB
0
TABLE
2
STYLE
5
3
100
AcDbSymbolTable
70
1
0
STYLE
5
11
100
AcDbSymbolTableRecord
100
AcDbTextStyleTableRecord
2
STANDARD
70
0
0
ENDTAB
0
TABLE
2
VIEW
5
6
100
AcDbSymbolTable
70
0
0
ENDTAB
0
TABLE
2
UCS
5
7
100
AcDbSymbolTable
70
0
0
ENDTAB
0
TABLE
2
APPID
5
9
100
AcDbSymbolTable
70
2
0
APPID
5
12
100
AcDbSymbolTableRecord
100
AcDbRegAppTableRecord
2
ACAD
70
0
0
ENDTAB
0
TABLE
2
DIMSTYLE
5
A
100
AcDbSymbolTable
70
1
0
ENDTAB
0
TABLE
2
BLOCK_RECORD
5
1
100
AcDbSymbolTable
70
1
0
BLOCK_RECORD
5
1F
100
AcDbSymbolTableRecord
100
AcDbBlockTableRecord
2
*MODEL_SPACE
0
BLOCK_RECORD
5
1B
100
AcDbSymbolTableRecord
100
AcDbBlockTableRecord
2
*PAPER_SPACE
0
ENDTAB
0
ENDSEC
0
SECTION
2
BLOCKS
0
BLOCK
5
20
100
AcDbEntity
100
AcDbBlockBegin
2
*MODEL_SPACE
0
ENDBLK
5
21
100
AcDbEntity
100
AcDbBlockEnd
0
BLOCK
5
1C
100
AcDbEntity
100
AcDbBlockBegin
2
*PAPER_SPACE
0
ENDBLK
5
1D
100
AcDbEntity
100
AcDbBlockEnd
0
ENDSEC
0
SECTION
2
ENTITIES
0
CIRCLE
5
100
100
AcDbEntity
8
0
100
AcDbCircle
10
-27.939999999999927
20
-41.805000000000021
30
0
40
1.25
0
CIRCLE
5
101
100
AcDbEntity
8
0
100
AcDbCircle
10
-9.7477647811259445
20
-12.256381540781632
30
0
40
1.25
0
CIRCLE
5
102
100
AcDbEntity
8
0
100
AcDbCircle
10
13.252235218874075
20
-70.256381540781604
30
0
40
1.25
0
CIRCLE
5
103
100
AcDbEntity
8
0
100
AcDbCircle
10
-99.059999999999903
20
-41.80499999999968
30
0
40
1.25
0
CIRCLE
5
104
100
AcDbEntity
8
0
100
AcDbCircle
10
-27.940000000000083
20
-74.825000000000031
30
0
40
1.25
0
CIRCLE
5
105
100
AcDbEntity
8
0
100
AcDbCircle
10
13.252235218874072
20
-12.256381540781632
30
0
40
1.25
0
CIRCLE
5
106
100
AcDbEntity
8
0
100
AcDbCircle
10
-9.7477647811259409
20
-70.256381540781604
30
0
40
1.25
0
CIRCLE
5
107
100
AcDbEntity
8
0
100
AcDbCircle
10
-99.060000000000059
20
-74.82499999999969
30
0
40
1.25
0
LWPOLYLINE
5
108
100
AcDbEntity
8
0
100
AcDbPolyline
90
4
70
1
43
0.0
10
-56.631630476270232
20
-35.784999999999982
10
-56.631630476270232
20
-72.784999999999982
10
-53.456630476270234
20
-72.784999999999982
10
-53.456630476270234
20
-35.784999999999982
0
LWPOLYLINE
5
109
100
AcDbEntity
8
0
100
AcDbPolyline
90
4
70
1
43
0.0
10
-110.45663047627023
20
-58.864739775619476
10
-79.123297142936892
20
-58.864739775619476
10
-79.123297142936892
20
-55.689739775619472
10
-110.45663047627023
20
-55.689739775619472
0
LWPOLYLINE
5
110
100
AcDbEntity
8
0
100
AcDbPolyline
90
4
70
1
43
0.0
10
-16.456630476270231
20
-55.689739775619472
10
-47.789963809603563
20
-55.689739775619472
10
-47.789963809603563
20
-58.864739775619476
10
-16.456630476270231
20
-58.864739775619476
0
LWPOLYLINE
5
111
100
AcDbEntity
8
0
100
AcDbPolyline
90
4
70
1
43
0.0
10
-0.085264781125938827
20
-49.759999999999977
10
3.0897352188740612
20
-49.759999999999977
10
3.0897352188740612
20
-34.159999999999975
10
-0.085264781125938827
20
-34.159999999999975
0
LWPOLYLINE
5
112
100
AcDbEntity
8
0
100
AcDbPolyline
90
4
70
1
43
0.0
10
-0.085264781125938827
20
-2.959999999999976
10
-0.085264781125938827
20
-18.559999999999977
10
3.0897352188740612
20
-18.559999999999977
10
3.0897352188740612
20
-2.959999999999976
0
LWPOLYLINE
5
113
100
AcDbEntity
8
0
100
AcDbPolyline
90
4
70
1
43
0.0
10
-18.174999999999986
20
-44.940121133744668
10
-3.2602647811259393
20
-44.940121133744668
10
-3.2602647811259389
20
-41.765121133744657
10
-18.174999999999986
20
-41.765121133744657
0
LWPOLYLINE
5
114
100
AcDbEntity
8
0
100
AcDbPolyline
90
4
70
1
43
0.0
10
16.82500000000001
20
-44.940121133744668
10
16.82500000000001
20
-41.765121133744671
10
6.2647352188740513
20
-41.765121133744671
10
6.2647352188740513
20
-44.940121133744668
0
LINE
5
115
100
AcDbEntity
8
0
100
AcDbLine
10
-123.14285714285714
20
-80.959999999999965
30
0
11
-123.14285714285714
21
-77.784999999999968
31
0
0
LINE
5
116
100
AcDbEntity
8
0
100
AcDbLine
10
-123.14285714285714
20
-77.784999999999968
30
0
11
-99.285714285714292
21
-77.784999999999968
31
0
0
LINE
5
117
100
AcDbEntity
8
0
100
AcDbLine
10
-75.428571428571431
20
-77.784999999999968
30
0
11
-51.571428571428569
21
-77.784999999999968
31
0
0
LINE
5
118
100
AcDbEntity
8
0
100
AcDbLine
10
-27.714285714285715
20
-77.784999999999968
30
0
11
-3.8571428571428568
21
-77.784999999999968
31
0
0
LWPOLYLINE
5
119
100
AcDbEntity
8
0
100
AcDbPolyline
90
4
70
1
43
0.0
10
-0.085264781125938827
20
-65.359999999999985
10
-0.085264781125938827
20
-77.784999999999982
10
3.0897352188740612
20
-77.784999999999982
10
3.0897352188740612
20
-65.359999999999985
0
LINE
5
120
100
AcDbEntity
8
0
100
AcDbLine
10
-3.8571428571428568
20
-77.784999999999968
30
0
11
-3.8571428571428568
21
-80.959999999999965
31
0
0
LINE
5
121
100
AcDbEntity
8
0
100
AcDbLine
10
-3.8571428571428568
20
-80.959999999999965
30
0
11
20
21
-80.959999999999965
31
0
0
LINE
5
122
100
AcDbEntity
8
0
100
AcDbLine
10
20
20
-80.959999999999965
30
0
11
20
21
-66.537142857142854
31
0
0
LINE
5
123
100
AcDbEntity
8
0
100
AcDbLine
10
20
20
-66.537142857142854
30
0
11
16.82500000000001
21
-66.537142857142854
31
0
0
LINE
5
124
100
AcDbEntity
8
0
100
AcDbLine
10
16.82500000000001
20
-66.537142857142854
30
0
11
16.82500000000001
21
-52.1142857142857
31
0
0
LINE
5
125
100
AcDbEntity
8
0
100
AcDbLine
10
16.82500000000001
20
-52.1142857142857
30
0
11
20
21
-52.1142857142857
31
0
0
LINE
5
126
100
AcDbEntity
8
0
100
AcDbLine
10
20
20
-52.1142857142857
30
0
11
20
21
-37.69142857142856
31
0
0
LINE
5
127
100
AcDbEntity
8
0
100
AcDbLine
10
20
20
-37.69142857142856
30
0
11
16.825000000000014
21
-37.69142857142856
31
0
0
LINE
5
128
100
AcDbEntity
8
0
100
AcDbLine
10
16.825000000000014
20
-37.69142857142856
30
0
11
16.825000000000021
21
-23.268571428571416
31
0
0
LINE
5
129
100
AcDbEntity
8
0
100
AcDbLine
10
16.825000000000021
20
-23.268571428571416
30
0
11
20
21
-23.268571428571416
31
0
0
LINE
5
130
100
AcDbEntity
8
0
100
AcDbLine
10
20
20
-23.268571428571416
30
0
11
20
21
-8.8457142857142692
31
0
0
LINE
5
131
100
AcDbEntity
8
0
100
AcDbLine
10
20
20
-8.8457142857142692
30
0
11
16.825000000000038
21
-8.8457142857142692
31
0
0
LINE
5
132
100
AcDbEntity
8
0
100
AcDbLine
10
16.825000000000038
20
-8.8457142857142692
30
0
11
16.825000000000038
21
5.5771428571428743
31
0
0
LINE
5
133
100
AcDbEntity
8
0
100
AcDbLine
10
16.825000000000038
20
5.5771428571428743
30
0
11
20
21
5.5771428571428743
31
0
0
LINE
5
134
100
AcDbEntity
8
0
100
AcDbLine
10
20
20
5.5771428571428743
30
0
11
20
21
20.000000000000036
31
0
0
LINE
5
135
100
AcDbEntity
8
0
100
AcDbLine
10
20
20
20.000000000000036
30
0
11
-3.8571428571428612
21
20
31
0
0
LINE
5
136
100
AcDbEntity
8
0
100
AcDbLine
10
-3.8571428571428612
20
20
30
0
11
-3.8571428571428612
21
16.825000000000003
31
0
0
LINE
5
137
100
AcDbEntity
8
0
100
AcDbLine
10
-3.8571428571428612
20
16.825000000000003
30
0
11
-27.714285714285722
21
16.825000000000003
31
0
0
LINE
5
138
100
AcDbEntity
8
0
100
AcDbLine
10
-27.714285714285722
20
16.825000000000003
30
0
11
-27.714285714285722
21
20
31
0
0
LINE
5
139
100
AcDbEntity
8
0
100
AcDbLine
10
-27.714285714285722
20
20
30
0
11
-51.571428571428569
21
20
31
0
0
LINE
5
140
100
AcDbEntity
8
0
100
AcDbLine
10
-51.571428571428569
20
20
30
0
11
-51.571428571428569
21
16.825000000000003
31
0
0
LINE
5
141
100
AcDbEntity
8
0
100
AcDbLine
10
-51.571428571428569
20
16.825000000000003
30
0
11
-75.428571428571416
21
16.825000000000003
31
0
0
LINE
5
142
100
AcDbEntity
8
0
100
AcDbLine
10
-75.428571428571416
20
16.825000000000003
30
0
11
-75.428571428571416
21
20
31
0
0
LINE
5
143
100
AcDbEntity
8
0
100
AcDbLine
10
-75.428571428571416
20
20
30
0
11
-99.285714285714278
21
20.000000000000018
31
0
0
LINE
5
144
100
AcDbEntity
8
0
100
AcDbLine
10
-99.285714285714278
20
20.000000000000018
30
0
11
-99.285714285714278
21
16.825000000000017
31
0
0
LINE
5
145
100
AcDbEntity
8
0
100
AcDbLine
10
-99.285714285714278
20
16.825000000000017
30
0
11
-123.14285714285714
21
16.825000000000017
31
0
0
LINE
5
146
100
AcDbEntity
8
0
100
AcDbLine
10
-123.14285714285714
20
16.825000000000017
30
0
11
-123.14285714285714
21
20.000000000000018
31
0
0
LINE
5
147
100
AcDbEntity
8
0
100
AcDbLine
10
-123.14285714285714
20
20.000000000000018
30
0
11
-147.00000000000003
21
20.000000000000018
31
0
0
LINE
5
148
100
AcDbEntity
8
0
100
AcDbLine
10
-147.00000000000003
20
20.000000000000018
30
0
11
-147
21
5.5771428571428672
31
0
0
LINE
5
149
100
AcDbEntity
8
0
100
AcDbLine
10
-147
20
5.5771428571428672
30
0
11
-143.82500000000005
21
5.5771428571428672
31
0
0
LINE
5
150
100
AcDbEntity
8
0
100
AcDbLine
10
-143.82500000000005
20
5.5771428571428672
30
0
11
-143.82500000000005
21
-8.8457142857142657
31
0
0
LINE
5
151
100
AcDbEntity
8
0
100
AcDbLine
10
-143.82500000000005
20
-8.8457142857142657
30
0
11
-147
21
-8.8457142857142657
31
0
0
LINE
5
152
100
AcDbEntity
8
0
100
AcDbLine
10
-147
20
-8.8457142857142657
30
0
11
-147
21
-23.268571428571416
31
0
0
LINE
5
153
100
AcDbEntity
8
0
100
AcDbLine
10
-147
20
-23.268571428571416
30
0
11
-143.82500000000002
21
-23.268571428571416
31
0
0
LINE
5
154
100
AcDbEntity
8
0
100
AcDbLine
10
-143.82500000000002
20
-23.268571428571416
30
0
11
-143.82500000000002
21
-37.69142857142856
31
0
0
LINE
5
155
100
AcDbEntity
8
0
100
AcDbLine
10
-143.82500000000002
20
-37.69142857142856
30
0
11
-147
21
-37.69142857142856
31
0
0
LINE
5
156
100
AcDbEntity
8
0
100
AcDbLine
10
-147
20
-37.69142857142856
30
0
11
-147
21
-52.1142857142857
31
0
0
LINE
5
157
100
AcDbEntity
8
0
100
AcDbLine
10
-147
20
-52.1142857142857
30
0
11
-143.82499999999999
21
-52.1142857142857
31
0
0
LINE
5
158
100
AcDbEntity
8
0
100
AcDbLine
10
-143.82499999999999
20
-52.1142857142857
30
0
11
-143.82499999999999
21
-66.537142857142854
31
0
0
LINE
5
159
100
AcDbEntity
8
0
100
AcDbLine
10
-143.82499999999999
20
-66.537142857142854
30
0
11
-147
21
-66.537142857142854
31
0
0
LINE
5
160
100
AcDbEntity
8
0
100
AcDbLine
10
-147
20
-66.537142857142854
30
0
11
-147.00000000000003
21
-80.959999999999965
31
0
0
LINE
5
161
100
AcDbEntity
8
0
100
AcDbLine
10
-147.00000000000003
20
-80.959999999999965
30
0
11
-123.14285714285714
21
-80.959999999999965
31
0
0
LINE
5
162
100
AcDbEntity
8
0
100
AcDbLine
10
-51.571428571428569
20
-77.784999999999968
30
0
11
-51.571428571428569
21
-80.959999999999965
31
0
0
LINE
5
163
100
AcDbEntity
8
0
100
AcDbLine
10
-51.571428571428569
20
-80.959999999999965
30
0
11
-27.714285714285715
21
-80.959999999999965
31
0
0
LINE
5
164
100
AcDbEntity
8
0
100
AcDbLine
10
-27.714285714285715
20
-80.959999999999965
30
0
11
-27.714285714285715
21
-77.784999999999968
31
0
0
LINE
5
165
100
AcDbEntity
8
0
100
AcDbLine
10
-99.285714285714292
20
-77.784999999999968
30
0
11
-99.285714285714292
21
-80.959999999999965
31
0
0
LINE
5
166
100
AcDbEntity
8
0
100
AcDbLine
10
-99.285714285714292
20
-80.959999999999965
30
0
11
-75.428571428571431
21
-80.959999999999965
31
0
0
LINE
5
167
100
AcDbEntity
8
0
100
AcDbLine
10
-75.428571428571431
20
-80.959999999999965
30
0
11
-75.428571428571431
21
-77.784999999999968
31
0
0
ENDSEC
0
SECTION
2
OBJECTS
0
DICTIONARY
5
C
100
AcDbDictionary
3
ACAD_GROUP
350
D
3
ACAD_MLINESTYLE
350
17
0
DICTIONARY
5
D
100
AcDbDictionary
0
DICTIONARY
5
1A
330
C
100
AcDbDictionary
0
DICTIONARY
5
17
100
AcDbDictionary
0
ENDSEC
0
EOF
