0
SECTION
2
HEADER
9
$INSUNITS
70
4
9
$ACADVER
1
AC1014
9
$HANDSEED
5
FFFF
0
ENDSEC
0
SECTION
2
TABLES
0
TABLE
2
VPORT
5
8
100
AcDbSymbolTable
0
ENDTAB
0
TABLE
2
LTYPE
5
5
100
AcDbSymbolTable
0
LTYPE
5
14
100
AcDbSymbolTableRecord
100
AcDbLinetypeTableRecord
2
BYBLOCK
70
0
0
LTYPE
5
15
100
AcDbSymbolTableRecord
100
AcDbLinetypeTableRecord
2
BYLAYER
70
0
0
ENDTAB
0
TABLE
2
LAYER
5
2
100
AcDbSymbolTable
70
2
0
LAYER
5
50
100
AcDbSymbolTableRecord
100
AcDbLayerTableRecord
2
0
70
0
6
CONTINUOUS
0
ENDTAB
0
TABLE
2
STYLE
5
3
100
AcDbSymbolTable
70
1
0
STYLE
5
11
100
AcDbSymbolTableRecord
100
AcDbTextStyleTableRecord
2
STANDARD
70
0
0
ENDTAB
0
TABLE
2
VIEW
5
6
100
AcDbSymbolTable
70
0
0
ENDTAB
0
TABLE
2
UCS
5
7
100
AcDbSymbolTable
70
0
0
ENDTAB
0
TABLE
2
APPID
5
9
100
AcDbSymbolTable
70
2
0
APPID
5
12
100
AcDbSymbolTableRecord
100
AcDbRegAppTableRecord
2
ACAD
70
0
0
ENDTAB
0
TABLE
2
DIMSTYLE
5
A
100
AcDbSymbolTable
70
1
0
ENDTAB
0
TABLE
2
BLOCK_RECORD
5
1
100
AcDbSymbolTable
70
1
0
BLOCK_RECORD
5
1F
100
AcDbSymbolTableRecord
100
AcDbBlockTableRecord
2
*MODEL_SPACE
0
BLOCK_RECORD
5
1B
100
AcDbSymbolTableRecord
100
AcDbBlockTableRecord
2
*PAPER_SPACE
0
ENDTAB
0
ENDSEC
0
SECTION
2
BLOCKS
0
BLOCK
5
20
100
AcDbEntity
100
AcDbBlockBegin
2
*MODEL_SPACE
0
ENDBLK
5
21
100
AcDbEntity
100
AcDbBlockEnd
0
BLOCK
5
1C
100
AcDbEntity
100
AcDbBlockBegin
2
*PAPER_SPACE
0
ENDBLK
5
1D
100
AcDbEntity
100
AcDbBlockEnd
0
ENDSEC
0
SECTION
2
ENTITIES
0
LWPOLYLINE
5
100
100
AcDbEntity
8
0
100
AcDbPolyline
90
4
70
1
43
0.0
10
9.4345434564825563
20
-13.832694675916255
42
-0.2216946626429401
10
-4.1481456572266806
20
2.3545238724369923
42
0.99999999999999989
10
-13.807403920117359
20
-0.23366657858821527
42
0.21959838569448834
10
5.2083608390755618
20
-22.895772546282743
42
0.99999999999999989
0
LWPOLYLINE
5
101
100
AcDbEntity
8
0
100
AcDbPolyline
90
4
70
1
43
0.0
10
-24.246381540781439
20
-24.403351902362829
10
-15.266381540781746
20
-24.403351902362829
10
-15.266381540781746
20
-20.708351902440846
10
-24.246381540781439
20
-20.708351902440846
0
LWPOLYLINE
5
102
100
AcDbEntity
8
0
100
AcDbPolyline
90
4
70
1
43
0.0
10
-27.866381540781941
20
-20.708351902440853
10
-36.846381540781636
20
-20.708351902440853
10
-36.846381540781636
20
-24.403351902362832
10
-27.866381540781941
20
-24.403351902362832
0
LWPOLYLINE
5
103
100
AcDbEntity
8
0
100
AcDbPolyline
90
4
70
1
43
0.0
10
-67.456381540781621
20
-19.953351902362858
10
-67.456381540781621
20
-24.40335190236279
10
-55.256381540781625
20
-24.40335190236279
10
-55.256381540781625
20
-19.953351902362858
0
LINE
5
104
100
AcDbEntity
8
0
100
AcDbLine
10
16.825000000000038
20
-31.174999999999997
30
0
11
16.825000000000017
21
-21.174999999999997
31
0
0
LINE
5
105
100
AcDbEntity
8
0
100
AcDbLine
10
16.825000000000017
20
-21.174999999999997
30
0
11
20.000000000000018
21
-21.174999999999997
31
0
0
LINE
5
106
100
AcDbEntity
8
0
100
AcDbLine
10
20.000000000000018
20
-21.174999999999997
30
0
11
20.000000000000018
21
-11.174999999999997
31
0
0
LINE
5
107
100
AcDbEntity
8
0
100
AcDbLine
10
20.000000000000018
20
-11.174999999999997
30
0
11
16.825000000000017
21
-11.174999999999997
31
0
0
LINE
5
108
100
AcDbEntity
8
0
100
AcDbLine
10
16.825000000000017
20
-11.174999999999997
30
0
11
16.825000000000017
21
-1.1749999999999983
31
0
0
LINE
5
109
100
AcDbEntity
8
0
100
AcDbLine
10
16.825000000000017
20
-1.1749999999999983
30
0
11
20.000000000000018
21
-1.1749999999999983
31
0
0
LINE
5
110
100
AcDbEntity
8
0
100
AcDbLine
10
20.000000000000018
20
-1.1749999999999983
30
0
11
20.000000000000036
21
8.8250000000000011
31
0
0
LINE
5
111
100
AcDbEntity
8
0
100
AcDbLine
10
20.000000000000036
20
8.8250000000000011
30
0
11
-77.784999999999997
21
8.8250000000000011
31
0
0
LINE
5
112
100
AcDbEntity
8
0
100
AcDbLine
10
-77.784999999999997
20
8.8250000000000011
30
0
11
-77.784999999999968
21
1.206250000000002
31
0
0
LINE
5
113
100
AcDbEntity
8
0
100
AcDbLine
10
-77.784999999999968
20
1.206250000000002
30
0
11
-80.959999999999965
21
1.206250000000002
31
0
0
LINE
5
114
100
AcDbEntity
8
0
100
AcDbLine
10
-80.959999999999965
20
1.206250000000002
30
0
11
-80.959999999999965
21
-9.5874999999999986
31
0
0
LINE
5
115
100
AcDbEntity
8
0
100
AcDbLine
10
-80.959999999999965
20
-9.5874999999999986
30
0
11
-77.784999999999968
21
-9.5874999999999986
31
0
0
LINE
5
116
100
AcDbEntity
8
0
100
AcDbLine
10
-77.784999999999968
20
-9.5874999999999986
30
0
11
-77.784999999999968
21
-20.381250000000001
31
0
0
LINE
5
117
100
AcDbEntity
8
0
100
AcDbLine
10
-77.784999999999968
20
-20.381250000000001
30
0
11
-80.959999999999965
21
-20.381250000000001
31
0
0
LINE
5
118
100
AcDbEntity
8
0
100
AcDbLine
10
-80.959999999999965
20
-20.381250000000001
30
0
11
-80.959999999999965
21
-31.174999999999997
31
0
0
LINE
5
119
100
AcDbEntity
8
0
100
AcDbLine
10
-80.959999999999965
20
-31.174999999999997
30
0
11
-66.537142857142854
21
-31.174999999999997
31
0
0
LINE
5
120
100
AcDbEntity
8
0
100
AcDbLine
10
-66.537142857142854
20
-31.174999999999997
30
0
11
-66.537142857142854
21
-34.349999999999994
31
0
0
LINE
5
121
100
AcDbEntity
8
0
100
AcDbLine
10
-66.537142857142854
20
-34.349999999999994
30
0
11
-52.1142857142857
21
-34.349999999999994
31
0
0
LINE
5
122
100
AcDbEntity
8
0
100
AcDbLine
10
-52.1142857142857
20
-34.349999999999994
30
0
11
-52.1142857142857
21
-31.174999999999997
31
0
0
LINE
5
123
100
AcDbEntity
8
0
100
AcDbLine
10
-52.1142857142857
20
-31.174999999999997
30
0
11
-44.940121133744668
21
-31.174999999999997
31
0
0
LINE
5
124
100
AcDbEntity
8
0
100
AcDbLine
10
-44.940121133744668
20
-31.174999999999997
30
0
11
-44.940121133744668
21
-24.903351902362832
31
0
0
LINE
5
125
100
AcDbEntity
8
0
100
AcDbLine
10
-44.940121133744668
20
-24.903351902362832
30
0
11
-41.765121133744671
21
-24.903351902362832
31
0
0
LINE
5
126
100
AcDbEntity
8
0
100
AcDbLine
10
-41.765121133744671
20
-24.903351902362832
30
0
11
-41.765121133744671
21
-31.174999999999997
31
0
0
LINE
5
127
100
AcDbEntity
8
0
100
AcDbLine
10
-41.765121133744671
20
-31.174999999999997
30
0
11
-37.69142857142856
21
-31.174999999999997
31
0
0
LINE
5
128
100
AcDbEntity
8
0
100
AcDbLine
10
-37.69142857142856
20
-31.174999999999997
30
0
11
-37.69142857142856
21
-34.349999999999994
31
0
0
LINE
5
129
100
AcDbEntity
8
0
100
AcDbLine
10
-37.69142857142856
20
-34.349999999999994
30
0
11
-23.268571428571416
21
-34.349999999999994
31
0
0
LINE
5
130
100
AcDbEntity
8
0
100
AcDbLine
10
-23.268571428571416
20
-34.349999999999994
30
0
11
-23.268571428571416
21
-31.174999999999997
31
0
0
LINE
5
131
100
AcDbEntity
8
0
100
AcDbLine
10
-23.268571428571416
20
-31.174999999999997
30
0
11
-8.8457142857142692
21
-31.174999999999997
31
0
0
LINE
5
132
100
AcDbEntity
8
0
100
AcDbLine
10
-8.8457142857142692
20
-31.174999999999997
30
0
11
-8.8457142857142692
21
-34.349999999999994
31
0
0
LINE
5
133
100
AcDbEntity
8
0
100
AcDbLine
10
-8.8457142857142692
20
-34.349999999999994
30
0
11
5.5771428571428743
21
-34.349999999999994
31
0
0
LINE
5
134
100
AcDbEntity
8
0
100
AcDbLine
10
5.5771428571428743
20
-34.349999999999994
30
0
11
5.5771428571428743
21
-31.174999999999997
31
0
0
LINE
5
135
100
AcDbEntity
8
0
100
AcDbLine
10
5.5771428571428743
20
-31.174999999999997
30
0
11
16.825000000000038
21
-31.174999999999997
31
0
0
CIRCLE
5
136
100
AcDbEntity
8
0
100
AcDbCircle
10
7.3214521477790617
20
-18.3642336110995
30
0
40
4.9999999999999982
0
LWPOLYLINE
5
137
100
AcDbEntity
8
0
100
AcDbPolyline
90
4
70
1
43
0.0
10
9.8360132487271237
20
-16.728084941326834
10
6.9584860248857581
20
-15.386271960300103
10
4.806891046830998
20
-20.000382280872159
10
7.6844182706723654
20
-21.342195261898866
0
ENDSEC
0
SECTION
2
OBJECTS
0
DICTIONARY
5
C
100
AcDbDictionary
3
ACAD_GROUP
350
D
3
ACAD_MLINESTYLE
350
17
0
DICTIONARY
5
D
100
AcDbDictionary
0
DICTIONARY
5
1A
330
C
100
AcDbDictionary
0
DICTIONARY
5
17
100
AcDbDictionary
0
ENDSEC
0
EOF
